<svg width="1485" height="1520" viewBox="0 0 1485 1520" fill="none" xmlns="http://www.w3.org/2000/svg">
<g clip-path="url(#clip0_5229_14608)">
<circle cx="143.873" cy="1472.22" r="14.8727" fill="#14142B"/>
<circle cx="1340.87" cy="1472.22" r="14.8727" fill="#14142B"/>
<circle cx="233.109" cy="1193.35" r="29.7455" fill="#14142B"/>
<circle cx="1259.33" cy="1193.35" r="29.7455" fill="#14142B"/>
<circle cx="169.9" cy="1338.36" r="22.3091" fill="#14142B"/>
<circle cx="1322.54" cy="1338.36" r="22.3091" fill="#14142B"/>
<circle cx="352.091" cy="1052.06" r="37.1818" fill="#14142B"/>
<circle cx="1136.63" cy="1052.06" r="37.1818" fill="#14142B"/>
<circle cx="526.9" cy="951.673" r="40.9" fill="#14142B"/>
<circle cx="961.873" cy="951.673" r="40.9" fill="#14142B"/>
<circle cx="746.477" cy="901.477" r="46.4773" fill="#14142B"/>
</g>
<rect x="603" y="771" width="40" height="130" rx="20" fill="#14142A"/>
<rect x="843" y="771" width="40" height="130" rx="20" fill="#14142A"/>
<path d="M581 699L587.665 697H901.5L906 698L908 698.5V730H567V702.707L581 699Z" fill="#14142A"/>
<path d="M602.656 716.09C606.13 707.606 601.984 697.599 592.831 697.08C585.649 696.673 578.399 697.816 571.59 700.513C559.578 705.27 549.873 714.492 544.511 726.247C539.148 738.001 538.543 751.375 542.824 763.565C545.25 770.475 549.139 776.7 554.153 781.857C560.544 788.43 570.82 785.002 574.951 776.818L576.634 773.483C579.835 767.141 576.502 759.27 574.148 752.566C572.71 748.47 572.913 743.976 574.715 740.027C576.517 736.077 579.778 732.978 583.814 731.38C590.42 728.764 598.549 726.122 601.241 719.547L602.656 716.09Z" fill="#14142A"/>
<path d="M912.521 776.028C917.056 783.996 927.491 786.905 933.545 780.021C937.691 775.306 940.946 769.816 943.09 763.81C947.113 752.539 946.96 740.198 942.659 729.03C938.358 717.862 930.194 708.607 919.649 702.947C914.03 699.93 907.934 698.041 901.697 697.326C892.589 696.281 886.801 705.438 888.782 714.389L889.79 718.942C891.214 725.378 898.138 729.079 903.947 732.197C907.49 734.099 910.233 737.209 911.678 740.962C913.123 744.714 913.175 748.861 911.823 752.648C909.606 758.857 906.954 766.246 910.215 771.975L912.521 776.028Z" fill="#14142A"/>
<g clip-path="url(#clip1_5229_14608)">
<path d="M626.032 320L630.332 318H832.806L835.71 319L837 319.5V351H617V323.707L626.032 320Z" fill="#14142A"/>
<path d="M652.656 337.09C656.13 328.606 651.984 318.599 642.831 318.08C635.649 317.673 628.399 318.816 621.59 321.513C609.578 326.27 599.873 335.492 594.511 347.247C589.148 359.001 588.543 372.375 592.824 384.565C595.25 391.475 599.139 397.7 604.153 402.857C610.544 409.43 620.82 406.002 624.951 397.818L626.634 394.483C629.835 388.141 626.502 380.27 624.148 373.566C622.71 369.47 622.913 364.976 624.715 361.027C626.517 357.077 629.778 353.978 633.814 352.38C640.42 349.764 648.549 347.122 651.241 340.547L652.656 337.09Z" fill="#14142A"/>
<path d="M841.521 397.028C846.056 404.996 856.491 407.905 862.545 401.021C866.691 396.306 869.946 390.816 872.09 384.81C876.113 373.539 875.96 361.198 871.659 350.03C867.358 338.862 859.194 329.607 848.649 323.947C843.03 320.93 836.934 319.041 830.697 318.326C821.589 317.281 815.801 326.438 817.782 335.389L818.79 339.942C820.214 346.378 827.138 350.079 832.947 353.197C836.49 355.099 839.233 358.209 840.678 361.962C842.123 365.714 842.175 369.861 840.823 373.648C838.606 379.857 835.954 387.246 839.215 392.975L841.521 397.028Z" fill="#14142A"/>
</g>
<rect x="640.126" y="682.016" width="40" height="310.853" rx="20" transform="rotate(-168 640.126 682.016)" fill="#14142A"/>
<rect x="656.126" y="606.011" width="40" height="60" rx="20" transform="rotate(-168 656.126 606.011)" fill="#14142A"/>
<rect x="672.126" y="530.005" width="40" height="60" rx="20" transform="rotate(-168 672.126 530.005)" fill="#14142A"/>
<rect x="689.126" y="454.006" width="40" height="80" rx="20" transform="rotate(-168 689.126 454.006)" fill="#14142A"/>
<rect x="864.678" y="678.729" width="40" height="315.1" rx="20" transform="rotate(168 864.678 678.729)" fill="#14142A"/>
<circle cx="735" cy="117.5" r="15" fill="#14142B"/>
<circle cx="735" cy="177.5" r="25" fill="#14142B"/>
<ellipse cx="735" cy="257.5" rx="40" ry="35" fill="#14142B"/>
<defs>
<clipPath id="clip0_5229_14608">
<rect width="1227" height="632.091" fill="white" transform="translate(129 855)"/>
</clipPath>
<clipPath id="clip1_5229_14608">
<rect width="285" height="100" fill="white" transform="translate(590 318)"/>
</clipPath>
</defs>
</svg>
