<svg width="69" height="44" viewBox="0 0 69 44" fill="none" xmlns="http://www.w3.org/2000/svg">
<path d="M43.5754 43.3026V39.2M43.5754 39.2L42.5726 38.1972H43.9401M43.5754 39.2H49.4102M49.4102 39.2L50.413 38.1972H48.8632M49.4102 39.2V43.3026M48.8632 38.1972L49.6837 37.559H48.5897M48.8632 38.1972H43.9401M43.9401 38.1972L43.3931 37.559H44.3959M44.3959 37.559L43.5754 36.7385H44.5783M44.3959 37.559H48.5897M48.5897 37.559L49.1367 36.7385H48.4985M48.4985 36.7385C48.377 36.3434 48.0791 35.5533 47.8603 35.5533C47.6415 35.5533 47.4045 36.3434 47.3133 36.7385M48.4985 36.7385H47.3133M47.3133 36.7385H47.2222M47.2222 36.7385V35.5533C47.131 35.1583 46.8575 34.3681 46.4928 34.3681C46.1281 34.3681 45.8546 35.1583 45.7635 35.5533V36.7385M47.2222 36.7385H45.7635M45.7635 36.7385H45.5811M45.5811 36.7385C45.5811 36.3434 45.49 35.5533 45.1253 35.5533C44.7606 35.5533 44.6087 36.3434 44.5783 36.7385M45.5811 36.7385H44.5783" stroke="black" stroke-width="0.44"/>
<path d="M45.3074 43.3029V40.659H47.8601V43.3029" stroke="black" stroke-width="0.44"/>
<path d="M46.2193 14.4022L45.9458 13.6729L45.3076 13.5817H45.7634M47.3133 12.7612V13.4905L46.8574 14.4934L47.2221 13.6729L47.9515 13.5817H45.7634M47.3133 12.7612H48.0426H45.7634M47.3133 12.7612L46.5839 10.2997L45.8546 12.8524M45.3076 12.7612H45.7634M45.7634 12.7612V13.5817" stroke="black" stroke-width="0.44"/>
<path d="M46.4926 14.4023C45.9821 14.4023 45.6721 15.2532 45.5809 15.6786H47.5866C47.4347 15.2532 47.0032 14.4023 46.4926 14.4023Z" stroke="black" stroke-width="0.44"/>
<path d="M43.7577 21.6045V20.784H49.319V21.6045" stroke="black" stroke-width="0.44"/>
<path d="M44.0315 20.841V20.0877H49.1369V20.841" stroke="black" stroke-width="0.44"/>
<path d="M44.2136 20.0518V19.3524H48.9544V20.0518" stroke="black" stroke-width="0.44"/>
<path d="M44.3958 19.3255V18.4138H48.7719V19.3255" stroke="black" stroke-width="0.44"/>
<path d="M44.5783 18.4855V17.8936H48.5897V18.4855" stroke="black" stroke-width="0.44"/>
<path d="M44.7606 17.8844V17.3464H48.4073V17.8844" stroke="black" stroke-width="0.44"/>
<path d="M44.9428 17.2839V16.7996H48.2249V17.2839" stroke="black" stroke-width="0.44"/>
<path d="M45.1253 16.865V16.4346H48.0427V16.865" stroke="black" stroke-width="0.44"/>
<path d="M45.3076 16.4467V16.0701H47.8603V16.4467" stroke="black" stroke-width="0.44"/>
<path d="M45.4898 16.0279V15.7051H47.6779V16.0279" stroke="black" stroke-width="0.44"/>
<path d="M47.3133 22.4247H49.5014L49.5925 24.0658" stroke="black" stroke-width="0.44"/>
<path d="M43.4841 22.516L43.5753 21.6043H46.208" stroke="black" stroke-width="0.44"/>
<path d="M46.5837 21.6043H49.41V22.4249" stroke="black" stroke-width="0.44"/>
<path d="M64.2438 43.4849C63.112 39.61 60.7673 36.2098 57.5611 33.7936C54.3549 31.3775 50.4597 30.0756 46.4592 30.0829C42.4587 30.0902 38.5682 31.4064 35.3707 33.8342C32.1732 36.262 29.8407 39.6708 28.7228 43.5498L29.2701 43.7106C30.3535 39.9511 32.6141 36.6473 35.7132 34.2942C38.8123 31.9412 42.5829 30.6655 46.4602 30.6584C50.3376 30.6514 54.1128 31.9132 57.2202 34.2549C60.3277 36.5966 62.6002 39.8921 63.6971 43.6477L64.2438 43.4849Z" fill="black"/>
<path d="M42.2078 30.6298V25.7067H50.5953V30.6298" stroke="black" stroke-width="0.44"/>
<path d="M41.8431 24.0657V25.7068H51.2334V24.0657L50.3217 22.4247L49.7747 24.0657H48.7718L46.4015 21.4219L43.9399 24.0657H43.0283L42.4812 22.3335L41.8431 24.0657Z" stroke="black" stroke-width="0.44"/>
<path d="M43.2107 24.0653L43.393 22.5155H45.384" stroke="black" stroke-width="0.44"/>
<path d="M46.3 28.4929L46.2357 28.2786L46.3 28.15H46.4929L46.5786 28.3857L46.4929 28.6429H46.1286C46.0857 28.6286 46 28.5786 46 28.4929C46 28.4071 46 28.2286 46 28.15L46.1286 28H46.3643H46.6643L46.75 28.2786V28.7286L46.4929 28.8357L46.3643 28.9429V29.2643V29.4786" stroke="black" stroke-width="0.44"/>
<path d="M32 0V2" stroke="black" stroke-width="0.33"/>
<path d="M35.5526 12.6697L35.7349 10.208C35.2487 9.81297 34.0574 9.02285 33.1822 9.02285C32.0882 9.02285 30.903 8.93168 30.4472 9.02285C29.9913 9.11402 28.4415 9.56994 28.3503 9.84344C28.2774 10.0622 28.2895 11.8491 28.2591 12.7608" stroke="black" stroke-width="0.55"/>
<path d="M28.2591 10.8459C28.7757 10.6028 30.046 10.1165 30.9941 10.1165C32.1793 10.1165 32.9998 10.0254 33.7292 10.2077C34.3126 10.3536 35.2486 10.7547 35.6437 10.9371" stroke="black" stroke-width="0.55"/>
<path d="M28.2591 11.5978C28.7757 11.3547 30.046 10.8685 30.9941 10.8685C32.1793 10.8685 32.9998 10.7773 33.7292 10.9597C34.3126 11.1055 35.2486 11.5067 35.6437 11.689" stroke="black" stroke-width="0.55"/>
<path d="M31.2674 9.02344V10.1175V10.8468V11.3026" stroke="black" stroke-width="0.55"/>
<path d="M30.0824 10.2081L30.1736 11.5757" stroke="black" stroke-width="0.55"/>
<path d="M33.8203 9.20525V11.5756" stroke="black" stroke-width="0.55"/>
<path d="M32.544 10.117V11.3508" stroke="black" stroke-width="0.55"/>
<path d="M34.7322 10.5723V12.031" stroke="black" stroke-width="0.55"/>
<path d="M29.1709 13.3989C28.715 13.2166 28.168 12.9431 28.2592 12.7607C28.3503 12.5784 28.9885 11.8491 30.356 11.4844C31.7235 11.1197 33.1822 11.3932 33.9116 11.6667C34.6409 11.9402 35.8261 12.6696 35.5526 12.7607C35.3338 12.8337 35.1575 12.9735 35.0968 13.0342" stroke="black" stroke-width="0.55"/>
<path d="M28.6238 26.6446C28.9461 26.2149 30.1224 25.3717 32.2493 25.4361C34.3763 25.5006 35.4289 26.1132 35.6438 26.4355" stroke="black" stroke-width="0.55"/>
<path d="M28.806 22.5159C29.0969 22.128 30.1586 21.3668 32.0785 21.425C33.9985 21.4832 35.2673 22.0427 35.4612 22.3336" stroke="black" stroke-width="0.55"/>
<path d="M28.9884 18.6868C29.2793 18.2989 30.3411 17.5377 32.261 17.5959C34.1809 17.6541 35.0487 18.2504 35.2427 18.5413" stroke="black" stroke-width="0.55"/>
<path d="M29.0794 15.3128C29.3703 14.925 30.1586 13.8895 32.0785 13.9477C33.9984 14.0058 34.9026 14.5653 35.0965 14.8562" stroke="black" stroke-width="0.55"/>
<path d="M29.262 8.93197C29.5529 8.54411 30.3412 7.50863 32.2611 7.56681C34.181 7.62499 34.7205 8.45875 34.9144 8.74964" stroke="black" stroke-width="0.55"/>
<path d="M28.5325 28.3506L29.4442 5.83209C29.7785 5.43703 30.7935 4.66514 32.1792 4.73807C33.565 4.81101 34.4584 5.31546 34.7319 5.55857L36.0083 33.456" stroke="black" stroke-width="0.55"/>
<ellipse cx="32.4528" cy="22.9414" rx="0.364672" ry="0.243115" fill="black"/>
<ellipse cx="30.9941" cy="19.4766" rx="0.364672" ry="0.243115" fill="black"/>
<ellipse cx="33.3645" cy="16.1943" rx="0.364672" ry="0.243115" fill="black"/>
<ellipse cx="32.635" cy="6.16597" rx="0.364672" ry="0.243115" fill="black"/>
<ellipse cx="30.447" cy="12.913" rx="0.364672" ry="0.243115" fill="black"/>
<path d="M33.0908 9.78718C33.0908 9.92144 33.3467 11.0563 32.5 11C31.7057 11 32.0617 9.92144 32.0617 9.78718C32.0617 9.65291 32.3161 9.51367 32.5175 9.51367C32.7189 9.51367 33.0908 9.65291 33.0908 9.78718Z" fill="black"/>
<path d="M34.8234 5.5579C34.8649 5.31414 34.7744 5.06446 34.641 4.82856C34.5077 4.59265 34.1361 4.26133 33.8542 4.07987C33.5723 3.8984 33.2314 3.75684 32.8566 3.66566C32.4819 3.57447 32.0829 3.53601 31.6893 3.55311C31.2956 3.57022 30.9174 3.64245 30.5827 3.76447C30.2479 3.88648 29.9652 4.05515 29.7554 4.25798C29.5456 4.4608 29.4142 4.69259 29.3708 4.93618C29.3274 5.17976 29.2394 5.5705 29.371 5.80673L29.6268 5.74024C29.5097 5.53003 29.6214 5.18124 29.66 4.96449C29.6986 4.74773 29.8156 4.54147 30.0023 4.36099C30.189 4.1805 30.4406 4.03041 30.7385 3.92184C31.0363 3.81326 31.3729 3.74898 31.7232 3.73376C32.0734 3.71854 32.4284 3.75277 32.7619 3.83391C33.0954 3.91505 33.3988 4.04102 33.6496 4.2025C33.9004 4.36397 34.3401 4.70981 34.4587 4.91973C34.5773 5.12965 34.678 5.34099 34.641 5.5579L34.8234 5.5579Z" fill="black"/>
<path d="M32.8658 3.36308C32.8658 3.56876 32.4768 3.7355 31.9969 3.7355C31.5169 3.7355 31.1279 3.56876 31.1279 3.36308C31.1279 3.1574 31.5169 2.99066 31.9969 2.99066C32.4768 2.99066 32.8658 3.1574 32.8658 3.36308ZM31.6363 3.36308C31.6363 3.44843 31.7977 3.51761 31.9969 3.51761C32.196 3.51761 32.3574 3.44843 32.3574 3.36308C32.3574 3.27773 32.196 3.20854 31.9969 3.20854C31.7977 3.20854 31.6363 3.27773 31.6363 3.36308Z" fill="black"/>
<path d="M32.5638 3.11627C32.6054 3.07633 32.6234 3.0326 32.6161 2.98896C32.6089 2.94533 32.5767 2.90313 32.5223 2.86611C32.4679 2.82909 32.3931 2.79839 32.3044 2.77673C32.2157 2.75506 32.1159 2.74311 32.0139 2.74192C31.9118 2.74073 31.8107 2.75035 31.7194 2.76991C31.6281 2.78948 31.5495 2.81839 31.4905 2.85409C31.4315 2.88979 31.394 2.93117 31.3812 2.97458C31.3684 3.01798 31.3808 3.06206 31.4173 3.10292L31.7565 3.04729C31.7413 3.03034 31.7362 3.01204 31.7415 2.99403C31.7468 2.97602 31.7624 2.95885 31.7868 2.94404C31.8113 2.92922 31.8439 2.91723 31.8818 2.90911C31.9197 2.90099 31.9617 2.897 32.004 2.89749C32.0464 2.89799 32.0878 2.90295 32.1246 2.91193C32.1614 2.92092 32.1924 2.93366 32.215 2.94902C32.2375 2.96439 32.2509 2.9819 32.2539 3C32.2569 3.01811 32.2495 3.03625 32.2322 3.05283L32.5638 3.11627Z" fill="black"/>
<path d="M32.4317 2.86536C32.4936 2.82984 32.5306 2.78749 32.5383 2.74327C32.5459 2.69905 32.5239 2.65482 32.4749 2.61578C32.4259 2.57673 32.3518 2.5445 32.2615 2.52288C32.1712 2.50127 32.0683 2.49116 31.965 2.49374C31.8617 2.49633 31.7623 2.51151 31.6785 2.5375C31.5946 2.56348 31.5299 2.59919 31.4918 2.64042C31.4537 2.68165 31.4439 2.72668 31.4635 2.77021C31.4832 2.81374 31.5314 2.85396 31.6026 2.88614L31.8332 2.79248C31.8036 2.77913 31.7836 2.76244 31.7755 2.74437C31.7673 2.72631 31.7714 2.70762 31.7872 2.69052C31.803 2.67341 31.8299 2.65859 31.8647 2.64781C31.8994 2.63703 31.9407 2.63073 31.9836 2.62965C32.0264 2.62858 32.0691 2.63277 32.1066 2.64174C32.1441 2.65072 32.1748 2.66409 32.1951 2.68029C32.2155 2.69649 32.2246 2.71485 32.2214 2.73319C32.2183 2.75154 32.2029 2.76912 32.1772 2.78385L32.4317 2.86536Z" fill="black"/>
<path d="M32.2986 2.58424C32.3383 2.52689 32.361 2.45956 32.3643 2.38991C32.3676 2.32025 32.3513 2.25108 32.3172 2.19025C32.2831 2.12943 32.2326 2.0794 32.1714 2.04586C32.1103 2.01232 32.041 1.99662 31.9714 2.00055C31.9017 2.00447 31.8346 2.02786 31.7776 2.06805C31.7207 2.10825 31.6761 2.16363 31.6491 2.2279C31.622 2.29217 31.6135 2.36274 31.6246 2.43158C31.6357 2.50043 31.6659 2.56477 31.7118 2.6173H31.8729C31.8471 2.58777 31.7918 2.44437 31.7856 2.40566C31.7793 2.36696 31.7841 2.32728 31.7993 2.29114C31.8145 2.255 31.8396 2.22386 31.8716 2.20127C31.9036 2.17867 31.9414 2.16551 31.9805 2.16331C32.0197 2.1611 32.0586 2.16993 32.093 2.18879C32.1274 2.20765 32.1558 2.23578 32.175 2.26998C32.1941 2.30417 32.2033 2.34307 32.2015 2.38223C32.1996 2.42139 32.1435 2.58506 32.1212 2.6173L32.2986 2.58424Z" fill="black"/>
<path d="M1 28.8973L2.45869 30.8119L34.641 30.903L36.1909 28.4415L34.641 29.3532L24.339 27.7121H13.1254L2.73219 29.3532L1 28.8973Z" stroke="black" stroke-width="0.328294"/>
<path d="M10.2497 21.7866L10.0869 21.4219H27.8946L27.53 21.7866H10.2497Z" fill="#3D3A3A" stroke="#3D3A3A" stroke-width="0.328294"/>
<path d="M15.6782 21.878L16.0429 23.8837" stroke="black" stroke-width="0.393953"/>
<path d="M18.8691 21.878V23.8837" stroke="black" stroke-width="0.492441"/>
<path d="M22.3335 21.878L21.6953 23.8837" stroke="black" stroke-width="0.393953"/>
<path d="M25.342 21.9688L24.0656 24.1568" stroke="black" stroke-width="0.328294"/>
<path d="M13.6724 25.5245L14.4017 27.439H23.4273L24.0655 25.5245H13.6724Z" stroke="black" stroke-width="0.328294"/>
<path d="M10.2993 34.9141H27.1654" stroke="black" stroke-width="0.328294"/>
<path d="M30.265 30.9951L27.1653 33.7302" stroke="black" stroke-width="0.328294"/>
<path d="M24.7038 30.9951L23.4274 33.7302" stroke="black" stroke-width="0.492441"/>
<path d="M7.74641 30.9951L10.1168 33.5479" stroke="black" stroke-width="0.328294"/>
<path d="M12.4872 30.9951L13.7635 33.7302" stroke="black" stroke-width="0.492441"/>
<path d="M18.5041 30.9951V33.9125" stroke="black" stroke-width="0.656587"/>
<path d="M9.38748 35.3702L2.54987 30.9941H34.4587L27.9858 35.3702M9.38748 35.3702H27.9858M9.38748 35.3702V43.0283L27.9858 43.2106V35.3702" stroke="black" stroke-width="0.328294"/>
<path d="M10.2993 21.878L13.399 27.5304H24.4304L27.4389 21.878H10.2993Z" stroke="black" stroke-width="0.328294"/>
<path d="M9.38749 19.8719L10.2992 20.9659H27.4388L28.7151 19.9631" stroke="black" stroke-width="0.328294"/>
<path d="M18.8689 14.8575L16.8632 20.6923H20.4188L18.8689 14.8575Z" stroke="black" stroke-width="0.328294"/>
<path d="M12.1226 21.878L13.5812 24.066" stroke="black" stroke-width="0.328294"/>
<path d="M12.5782 39.8373V40.9313H13.5811V39.8373M13.5811 39.8373H12.1224V39.4726H14.0369V39.8373H13.5811Z" stroke="black" stroke-width="0.328294"/>
<path d="M13.7635 39.473C13.7635 39.3037 13.6963 39.1414 13.5766 39.0217C13.4569 38.902 13.2946 38.8348 13.1253 38.8348C12.9561 38.8348 12.7938 38.902 12.6741 39.0217C12.5544 39.1414 12.4872 39.3037 12.4872 39.473L12.6627 39.473C12.6627 39.3503 12.7114 39.2326 12.7982 39.1458C12.885 39.0591 13.0026 39.0103 13.1253 39.0103C13.248 39.0103 13.3657 39.0591 13.4525 39.1458C13.5392 39.2326 13.588 39.3503 13.588 39.473H13.7635Z" fill="black"/>
<path d="M19.9628 37.9236C19.9628 37.5367 19.8091 37.1657 19.5355 36.8921C19.262 36.6186 18.891 36.4649 18.5041 36.4649C18.1172 36.4649 17.7462 36.6186 17.4727 36.8921C17.1991 37.1657 17.0454 37.5367 17.0454 37.9236L17.3576 37.9236C17.3576 37.6195 17.4784 37.3279 17.6934 37.1129C17.9084 36.8979 18.2 36.7771 18.5041 36.7771C18.8082 36.7771 19.0998 36.8979 19.3148 37.1129C19.5298 37.3279 19.6506 37.6195 19.6506 37.9236H19.9628Z" fill="black"/>
<path d="M23.154 39.8373V40.9313H24.1569V39.8373M24.1569 39.8373H22.6982V39.4726H24.6127V39.8373H24.1569Z" stroke="black" stroke-width="0.328294"/>
<path d="M24.3393 39.473C24.3393 39.3037 24.2721 39.1414 24.1524 39.0217C24.0327 38.902 23.8704 38.8348 23.7011 38.8348C23.5319 38.8348 23.3695 38.902 23.2499 39.0217C23.1302 39.1414 23.0629 39.3037 23.0629 39.473L23.2385 39.473C23.2385 39.3503 23.2872 39.2326 23.374 39.1458C23.4607 39.0591 23.5784 39.0103 23.7011 39.0103C23.8238 39.0103 23.9415 39.0591 24.0283 39.1458C24.115 39.2326 24.1638 39.3503 24.1638 39.473H24.3393Z" fill="black"/>
<path d="M16.681 43.0286V37.9231H20.1454V43.0286" stroke="black" stroke-width="0.328294"/>
<ellipse cx="44" cy="27.5" rx="1" ry="0.5" fill="black"/>
<ellipse cx="49" cy="27.5" rx="1" ry="0.5" fill="black"/>
</svg>
