<svg width="32" height="22" viewBox="0 0 32 22" fill="none" xmlns="http://www.w3.org/2000/svg">
<path d="M25.8 8.38732C24.8933 3.78732 20.8533 0.333984 16 0.333984C12.1467 0.333984 8.8 2.52065 7.13333 5.72065C3.12 6.14732 0 9.54732 0 13.6673C0 18.0807 3.58667 21.6673 8 21.6673H25.3333C29.0133 21.6673 32 18.6807 32 15.0007C32 11.4806 29.2667 8.62732 25.8 8.38732ZM25.3333 19.0007H8C5.05333 19.0007 2.66667 16.614 2.66667 13.6673C2.66667 10.934 4.70667 8.65398 7.41333 8.37398L8.84 8.22732L9.50667 6.96065C10.7733 4.52065 13.2533 3.00065 16 3.00065C19.4933 3.00065 22.5067 5.48065 23.1867 8.90732L23.5867 10.9073L25.6267 11.054C27.7067 11.1873 29.3333 12.934 29.3333 15.0007C29.3333 17.2006 27.5333 19.0007 25.3333 19.0007ZM10.6667 12.334H14.0667V16.334H17.9333V12.334H21.3333L16 7.00065L10.6667 12.334Z" fill="#4E4B66"/>
</svg>
