<svg width="18" height="20" viewBox="0 0 18 20" fill="none" xmlns="http://www.w3.org/2000/svg">
<path d="M14.5 2V2.5H15H16C16.8239 2.5 17.5 3.17614 17.5 4V18C17.5 18.8239 16.8239 19.5 16 19.5H2C1.16783 19.5 0.500095 18.8256 0.5 18.0002C0.5 18.0001 0.5 18.0001 0.5 18L0.51 4.00036V4C0.51 3.17123 1.17103 2.5 2 2.5H3H3.5V2V0.5H4.5V2V2.5H5H13H13.5V2V0.5H14.5V2ZM16 18.5H16.5V18V8V7.5H16H2H1.5V8V18V18.5H2H16ZM16 6.5H16.5V6V4V3.5H16H2H1.5V4V6V6.5H2H16ZM4.5 11.5V10.5H5.5V11.5H4.5ZM9.5 11.5H8.5V10.5H9.5V11.5ZM12.5 11.5V10.5H13.5V11.5H12.5ZM4.5 15.5V14.5H5.5V15.5H4.5ZM9.5 15.5H8.5V14.5H9.5V15.5ZM12.5 15.5V14.5H13.5V15.5H12.5Z" fill="#4E4B66" stroke="#6E7191"/>
</svg>
