<svg width="10" height="15" viewBox="0 0 10 15" fill="none" xmlns="http://www.w3.org/2000/svg">
<path d="M5.32497 6.58333C3.4333 6.09167 2.82497 5.58333 2.82497 4.79167C2.82497 3.88333 3.66663 3.25 5.07497 3.25C6.5583 3.25 7.1083 3.95833 7.1583 5H8.99997C8.94163 3.56667 8.06663 2.25 6.32497 1.825V0H3.82497V1.8C2.2083 2.15 0.908301 3.2 0.908301 4.80833C0.908301 6.73333 2.49997 7.69167 4.82497 8.25C6.9083 8.75 7.32497 9.48333 7.32497 10.2583C7.32497 10.8333 6.91663 11.75 5.07497 11.75C3.3583 11.75 2.6833 10.9833 2.59163 10H0.758301C0.858301 11.825 2.22497 12.85 3.82497 13.1917V15H6.32497V13.2083C7.94997 12.9 9.24163 11.9583 9.24163 10.25C9.24163 7.88333 7.21663 7.075 5.32497 6.58333Z" fill="#6E7191"/>
</svg>
