<svg width="16" height="17" viewBox="0 0 16 17" fill="none" xmlns="http://www.w3.org/2000/svg">
<g clip-path="url(#clip0_4586_3911)">
<path d="M8.00039 0.5C5.38423 0.5 3.24023 2.6376 3.24023 5.24656C3.24023 6.25744 3.56311 7.19696 4.10951 7.96912L7.41943 13.6912C7.88295 14.2968 8.19111 14.1818 8.57655 13.6592L12.2274 7.4464C12.301 7.31296 12.359 7.17088 12.4094 7.02576C12.641 6.4612 12.7602 5.85681 12.7601 5.24656C12.7602 2.6376 10.6169 0.5 8.00039 0.5ZM8.00039 2.724C9.40935 2.724 10.5297 3.84176 10.5297 5.24656C10.5297 6.65136 9.40935 7.76864 8.00039 7.76864C6.59159 7.76864 5.47079 6.65152 5.47079 5.24656C5.47079 3.84176 6.59159 2.72416 8.00039 2.72416V2.724Z" fill="#6E7191"/>
<path d="M11.0262 8.32529L11.0185 8.34545C11.0209 8.33937 11.0228 8.33313 11.0252 8.32705L11.0262 8.32529ZM5.44106 11.5491C3.1809 11.8685 1.6001 12.6325 1.6001 13.7571C1.6001 15.272 4.24138 16.5 8.0001 16.5C11.7588 16.5 14.4001 15.272 14.4001 13.7571C14.4001 12.6325 12.8195 11.8685 10.5595 11.5491L10.2463 12.0822C11.9497 12.3186 13.1201 12.8152 13.1201 13.3915C13.1201 14.1995 10.8278 14.8544 8.0001 14.8544C5.17242 14.8544 2.8801 14.1995 2.8801 13.3915C2.87994 12.8171 4.04266 12.321 5.7513 12.0837C5.6481 11.9054 5.54426 11.7275 5.4409 11.5491H5.44106Z" fill="#6E7191"/>
</g>
<defs>
<clipPath id="clip0_4586_3911">
<rect width="16" height="16" fill="white" transform="translate(0 0.5)"/>
</clipPath>
</defs>
</svg>
