<svg width="24" height="25" viewBox="0 0 24 25" fill="none" xmlns="http://www.w3.org/2000/svg">
<path d="M4 13.5C5.1 13.5 6 12.6 6 11.5C6 10.4 5.1 9.5 4 9.5C2.9 9.5 2 10.4 2 11.5C2 12.6 2.9 13.5 4 13.5ZM5.13 14.6C4.76 14.54 4.39 14.5 4 14.5C3.01 14.5 2.07 14.71 1.22 15.08C0.48 15.4 0 16.12 0 16.93V18.5H4.5V16.89C4.5 16.06 4.73 15.28 5.13 14.6ZM20 13.5C21.1 13.5 22 12.6 22 11.5C22 10.4 21.1 9.5 20 9.5C18.9 9.5 18 10.4 18 11.5C18 12.6 18.9 13.5 20 13.5ZM24 16.93C24 16.12 23.52 15.4 22.78 15.08C21.93 14.71 20.99 14.5 20 14.5C19.61 14.5 19.24 14.54 18.87 14.6C19.27 15.28 19.5 16.06 19.5 16.89V18.5H24V16.93ZM16.24 14.15C15.07 13.63 13.63 13.25 12 13.25C10.37 13.25 8.93 13.64 7.76 14.15C6.68 14.63 6 15.71 6 16.89V18.5H18V16.89C18 15.71 17.32 14.63 16.24 14.15ZM8.07 16.5C8.16 16.27 8.2 16.11 8.98 15.81C9.95 15.43 10.97 15.25 12 15.25C13.03 15.25 14.05 15.43 15.02 15.81C15.79 16.11 15.83 16.27 15.93 16.5H8.07ZM12 8.5C12.55 8.5 13 8.95 13 9.5C13 10.05 12.55 10.5 12 10.5C11.45 10.5 11 10.05 11 9.5C11 8.95 11.45 8.5 12 8.5ZM12 6.5C10.34 6.5 9 7.84 9 9.5C9 11.16 10.34 12.5 12 12.5C13.66 12.5 15 11.16 15 9.5C15 7.84 13.66 6.5 12 6.5Z" fill="#6E7191"/>
</svg>
