<svg width="20" height="20" viewBox="0 0 20 20" fill="none" xmlns="http://www.w3.org/2000/svg">
<path d="M10 10.25V10.5347L10.2449 10.68L14.3096 13.0918L14.0816 13.4658L9.5 10.7169V5.5H10V10.25ZM0.5 10C0.5 4.75549 4.74679 0.5 9.99 0.5C15.2442 0.5 19.5 4.75647 19.5 10C19.5 15.2435 15.2442 19.5 9.99 19.5C4.74679 19.5 0.5 15.2445 0.5 10ZM1.5 10C1.5 14.6961 5.30386 18.5 10 18.5C14.6961 18.5 18.5 14.6961 18.5 10C18.5 5.30386 14.6961 1.5 10 1.5C5.30386 1.5 1.5 5.30386 1.5 10Z" fill="#4E4B66" stroke="#6E7191"/>
</svg>
