<svg width="301" height="187" viewBox="0 0 301 187" fill="none" xmlns="http://www.w3.org/2000/svg">
<path d="M48 99C32.52 99 20 111.52 20 127C20 148 48 179 48 179C48 179 76 148 76 127C76 111.52 63.48 99 48 99ZM28 127C28 115.96 36.96 107 48 107C59.04 107 68 115.96 68 127C68 138.52 56.48 155.76 48 166.52C39.68 155.84 28 138.4 28 127Z" fill="#FCFCFC"/>
<path d="M48 137C53.5229 137 58 132.523 58 127C58 121.477 53.5229 117 48 117C42.4772 117 38 121.477 38 127C38 132.523 42.4772 137 48 137Z" fill="#FCFCFC"/>
<path d="M253 8C237.52 8 225 20.52 225 36C225 57 253 88 253 88C253 88 281 57 281 36C281 20.52 268.48 8 253 8ZM233 36C233 24.96 241.96 16 253 16C264.04 16 273 24.96 273 36C273 47.52 261.48 64.76 253 75.52C244.68 64.84 233 47.4 233 36Z" fill="#FCFCFC"/>
<path d="M253 46C258.523 46 263 41.5229 263 36C263 30.4772 258.523 26 253 26C247.477 26 243 30.4772 243 36C243 41.5229 247.477 46 253 46Z" fill="#FCFCFC"/>
<path d="M48.5 178.5C58 173 81 145.999 121 147.999C171 150.499 192.5 119.999 194 114.999C198.5 99.9993 184 59 139 86.4993C115 106.5 137.5 123.499 149.5 128.499C161.5 133.499 191 133.999 205 130.499C219 126.999 237 90.4991 253 88.4991" stroke="#FCFCFC" stroke-width="3" stroke-dasharray="6 6"/>
</svg>
