<svg width="37" height="16" viewBox="0 0 37 16" fill="none" xmlns="http://www.w3.org/2000/svg">
<path d="M15.3333 11L13.5833 9.25C13.8056 8.94444 13.9583 8.63167 14.0417 8.31167C14.125 7.99278 14.1667 7.66667 14.1667 7.33333C14.1667 7 14.125 6.67333 14.0417 6.35333C13.9583 6.03444 13.8056 5.73611 13.5833 5.45833L15.3333 3.66667C15.7778 4.19444 16.1111 4.77778 16.3333 5.41667C16.5556 6.05556 16.6667 6.69444 16.6667 7.33333C16.6667 7.97222 16.5556 8.60389 16.3333 9.22833C16.1111 9.85389 15.7778 10.4444 15.3333 11ZM18.875 14.5833L17.0833 12.7917C17.7778 12.0139 18.2989 11.1528 18.6467 10.2083C18.9933 9.26389 19.1667 8.30556 19.1667 7.33333C19.1667 6.36111 18.9933 5.40944 18.6467 4.47833C18.2989 3.54833 17.7778 2.69444 17.0833 1.91667L18.875 0.125C19.8194 1.15278 20.5211 2.28444 20.98 3.52C21.4378 4.75667 21.6667 6.02778 21.6667 7.33333C21.6667 8.63889 21.4378 9.91667 20.98 11.1667C20.5211 12.4167 19.8194 13.5556 18.875 14.5833ZM6.66667 9C5.75 9 4.965 8.67333 4.31167 8.02C3.65944 7.36778 3.33333 6.58333 3.33333 5.66667C3.33333 4.75 3.65944 3.965 4.31167 3.31167C4.965 2.65944 5.75 2.33333 6.66667 2.33333C7.58333 2.33333 8.36778 2.65944 9.02 3.31167C9.67333 3.965 10 4.75 10 5.66667C10 6.58333 9.67333 7.36778 9.02 8.02C8.36778 8.67333 7.58333 9 6.66667 9ZM0 15.6667V14.7083C0 14.0417 0.180556 13.4306 0.541667 12.875C0.902778 12.3194 1.40278 11.9028 2.04167 11.625C2.76389 11.3194 3.50667 11.0833 4.27 10.9167C5.03444 10.75 5.83333 10.6667 6.66667 10.6667C7.5 10.6667 8.29889 10.75 9.06333 10.9167C9.82667 11.0833 10.5694 11.3194 11.2917 11.625C11.9306 11.9028 12.4306 12.3194 12.7917 12.875C13.1528 13.4306 13.3333 14.0417 13.3333 14.7083V15.6667H0ZM30 9C29.0833 9 28.2983 8.67333 27.645 8.02C26.9928 7.36778 26.6667 6.58333 26.6667 5.66667C26.6667 4.75 26.9928 3.965 27.645 3.31167C28.2983 2.65944 29.0833 2.33333 30 2.33333C30.9167 2.33333 31.7017 2.65944 32.355 3.31167C33.0072 3.965 33.3333 4.75 33.3333 5.66667C33.3333 6.58333 33.0072 7.36778 32.355 8.02C31.7017 8.67333 30.9167 9 30 9ZM23.3333 15.6667V14.7083C23.3333 14.0417 23.5139 13.4306 23.875 12.875C24.2361 12.3194 24.7361 11.9028 25.375 11.625C26.0972 11.3194 26.84 11.0833 27.6033 10.9167C28.3678 10.75 29.1667 10.6667 30 10.6667C30.8333 10.6667 31.6322 10.75 32.3967 10.9167C33.16 11.0833 33.9028 11.3194 34.625 11.625C35.2639 11.9028 35.7639 12.3194 36.125 12.875C36.4861 13.4306 36.6667 14.0417 36.6667 14.7083V15.6667H23.3333Z" fill="black"/>
</svg>
