<svg width="152" height="94" viewBox="0 0 152 94" fill="none" xmlns="http://www.w3.org/2000/svg">
<path d="M-1.10417 8.83333C-1.10417 3.345 3.345 -1.10417 8.83333 -1.10417H111.062C116.551 -1.10417 121 3.345 121 8.83333C121 4.56463 117.045 1.10417 112.167 1.10417H8.83333C4.56463 1.10417 1.10417 4.56463 1.10417 8.83333H-1.10417ZM121 85.1667C121 90.655 116.551 95.1042 111.062 95.1042H8.83333C3.345 95.1042 -1.10417 90.655 -1.10417 85.1667H1.10417C1.10417 89.4354 4.56463 92.8958 8.83333 92.8958H112.167C117.045 92.8958 121 89.4354 121 85.1667ZM8.83333 95.1042C3.345 95.1042 -1.10417 90.655 -1.10417 85.1667V8.83333C-1.10417 3.345 3.345 -1.10417 8.83333 -1.10417V1.10417C4.56463 1.10417 1.10417 4.56463 1.10417 8.83333V85.1667C1.10417 89.4354 4.56463 92.8958 8.83333 92.8958V95.1042ZM121 0V94V0Z" fill="#FCFCFC" mask="url(#path-1-inside-1_5267_15221)"/>
<path d="M120 8.83333C120 3.345 124.449 -1.10417 129.938 -1.10417H143.167C148.655 -1.10417 153.104 3.345 153.104 8.83333H150.896C150.896 4.56463 147.435 1.10417 143.167 1.10417H128.833C123.955 1.10417 120 4.56463 120 8.83333ZM153.104 84.1667C153.104 89.655 148.655 94.1042 143.167 94.1042H129.938C124.449 94.1042 120 89.655 120 84.1667C120 88.4354 123.955 91.8958 128.833 91.8958H143.167C147.435 91.8958 150.896 88.4354 150.896 84.1667H153.104ZM120 93V0V93ZM143.167 -1.10417C148.655 -1.10417 153.104 3.345 153.104 8.83333V84.1667C153.104 89.655 148.655 94.1042 143.167 94.1042V91.8958C147.435 91.8958 150.896 88.4354 150.896 84.1667V8.83333C150.896 4.56463 147.435 1.10417 143.167 1.10417V-1.10417Z" fill="#FCFCFC" mask="url(#path-3-inside-2_5267_15221)"/>
<g clip-path="url(#clip0_5267_15221)">
<path d="M77.225 18.8148C76.9882 18.7041 76.7123 18.6265 76.4179 18.5879C76.1236 18.5494 75.8183 18.5508 75.525 18.5922L43.525 23.3422C43.0888 23.4055 42.7012 23.5542 42.4246 23.7642C42.1479 23.9742 41.9984 24.2334 42 24.5V40.843C40.5256 40.2483 38.7824 39.9326 37 39.9375C35.22 39.9375 33.4799 40.2509 31.9999 40.8381C30.5198 41.4253 29.3663 42.2598 28.6851 43.2363C28.0039 44.2127 27.8257 45.2872 28.1729 46.3238C28.5202 47.3604 29.3774 48.3125 30.636 49.0599C31.8947 49.8072 33.4984 50.3161 35.2442 50.5223C36.99 50.7285 38.7996 50.6227 40.4442 50.2182C42.0887 49.8138 43.4943 49.1289 44.4832 48.2501C45.4722 47.3713 46 46.3381 46 45.2813V32.5453L74 28.3891V36.093C72.5256 35.4983 70.7824 35.1826 69 35.1875C67.22 35.1875 65.4799 35.5009 63.9999 36.0881C62.5198 36.6753 61.3663 37.5098 60.6851 38.4863C60.0039 39.4627 59.8257 40.5372 60.1729 41.5738C60.5202 42.6104 61.3774 43.5625 62.636 44.3099C63.8947 45.0572 65.4984 45.5661 67.2442 45.7723C68.99 45.9785 70.7996 45.8727 72.4442 45.4682C74.0887 45.0638 75.4943 44.3789 76.4832 43.5001C77.4722 42.6213 78 41.5881 78 40.5313V19.75C78.0029 19.569 77.9343 19.3901 77.7997 19.2277C77.6651 19.0653 77.4683 18.9239 77.225 18.8148ZM37 48.25C36.0111 48.25 35.0444 48.0759 34.2222 47.7497C33.3999 47.4235 32.759 46.9598 32.3806 46.4173C32.0022 45.8749 31.9032 45.278 32.0961 44.7021C32.289 44.1262 32.7652 43.5972 33.4645 43.182C34.1637 42.7668 35.0546 42.4841 36.0246 42.3695C36.9945 42.255 37.9998 42.3138 38.9134 42.5385C39.8271 42.7632 40.6079 43.1437 41.1574 43.6319C41.7068 44.1201 42 44.6941 42 45.2813C41.9934 46.0674 41.4645 46.8203 40.5283 47.3762C39.592 47.9321 38.3241 48.2461 37 48.25ZM46 30.1109V25.4203L74 21.2641V25.9547L46 30.1109ZM69 43.5C68.0111 43.5 67.0444 43.3259 66.2222 42.9997C65.3999 42.6735 64.759 42.2098 64.3806 41.6673C64.0022 41.1249 63.9032 40.528 64.0961 39.9521C64.289 39.3762 64.7652 38.8472 65.4645 38.432C66.1637 38.0168 67.0546 37.7341 68.0246 37.6195C68.9945 37.505 69.9998 37.5638 70.9134 37.7885C71.8271 38.0132 72.6079 38.3937 73.1574 38.8819C73.7068 39.3701 74 39.9441 74 40.5313C73.9934 41.3174 73.4645 42.0703 72.5283 42.6262C71.592 43.1821 70.3241 43.4961 69 43.5Z" fill="#FCFCFC"/>
<path d="M82.667 76.3333V75C82.667 74.4696 82.8777 73.9609 83.2528 73.5858C83.6279 73.2107 84.1366 73 84.667 73C85.1974 73 85.7061 73.2107 86.0812 73.5858C86.4563 73.9609 86.667 74.4696 86.667 75V77" stroke="#FCFCFC" stroke-width="2.41667" stroke-linecap="round" stroke-linejoin="round"/>
<path d="M90.6669 76.9999V68.3333C90.6669 67.8028 90.8776 67.2941 91.2527 66.919C91.6278 66.544 92.1365 66.3333 92.6669 66.3333C93.1973 66.3333 93.706 66.544 94.0811 66.919C94.4562 67.2941 94.6669 67.8028 94.6669 68.3333V82.3333C94.6669 84.455 93.8241 86.4898 92.3238 87.9901C90.8235 89.4904 88.7886 90.3333 86.6669 90.3333H84.0002H84.2776C82.9527 90.3335 81.6485 90.0047 80.4821 89.3763C79.3157 88.748 78.3236 87.8397 77.5949 86.7333C77.5075 86.6001 77.4203 86.4668 77.3336 86.3333C76.9176 85.6946 75.4576 83.1493 72.9522 78.6959C72.6968 78.242 72.6286 77.7063 72.7621 77.2028C72.8956 76.6993 73.2202 76.2678 73.6669 75.9999C74.1427 75.7144 74.7003 75.5961 75.2511 75.6637C75.8019 75.7314 76.3143 75.9811 76.7069 76.3733L78.6669 78.3333" stroke="#FCFCFC" stroke-width="2.41667" stroke-linecap="round" stroke-linejoin="round"/>
<path d="M86.667 75C86.667 74.4696 86.8777 73.9609 87.2528 73.5858C87.6279 73.2107 88.1366 73 88.667 73C89.1974 73 89.7061 73.2107 90.0812 73.5858C90.4563 73.9609 90.667 74.4696 90.667 75V77M78.667 78.3333V67C78.667 66.4696 78.8777 65.9609 79.2528 65.5858C79.6279 65.2107 80.1366 65 80.667 65C81.1974 65 81.7061 65.2107 82.0812 65.5858C82.4563 65.9609 82.667 66.4696 82.667 67V77" stroke="#FCFCFC" stroke-width="2.41667" stroke-linecap="round" stroke-linejoin="round"/>
<g clip-path="url(#clip1_5267_15221)">
<path d="M106 74.6664L104.667 64.9704C104.667 64.3491 104.914 63.7531 105.354 63.3131C106.719 61.9478 109.056 62.7264 109.33 64.6384L111.334 73.3331L113.344 64.8958C113.505 64.3503 113.867 63.8864 114.357 63.5977C114.847 63.3091 115.428 63.2173 115.983 63.341C116.538 63.4647 117.026 63.7946 117.347 64.2639C117.668 64.7332 117.798 65.307 117.712 65.8691L115.334 81.3331" stroke="#FCFCFC" stroke-width="2" stroke-linecap="round" stroke-linejoin="round"/>
<path d="M115.334 81.333C114.619 86.6663 110.857 89.333 105.334 89.333C99.8113 89.333 95.334 86.6663 95.334 81.333" stroke="#FCFCFC" stroke-width="2"/>
<path d="M95.334 81.3331V75.9998C95.334 75.2925 95.6149 74.6142 96.115 74.1141C96.6151 73.614 97.2934 73.3331 98.0007 73.3331C98.7079 73.3331 99.3862 73.614 99.8863 74.1141C100.386 74.6142 100.667 75.2925 100.667 75.9998M106.001 77.3331V74.6664C106.001 73.9592 105.72 73.2809 105.22 72.7808C104.72 72.2807 104.041 71.9998 103.334 71.9998C102.627 71.9998 101.948 72.2807 101.448 72.7808C100.948 73.2809 100.667 73.9592 100.667 74.6664V79.9998" stroke="#FCFCFC" stroke-width="2" stroke-linecap="round" stroke-linejoin="round"/>
<path d="M108.257 82.6663H104.668C103.96 82.6663 103.282 82.3854 102.782 81.8853C102.282 81.3852 102.001 80.7069 102.001 79.9997C102.001 79.2924 102.282 78.6142 102.782 78.1141C103.282 77.614 103.96 77.333 104.668 77.333H110.001C112.948 77.333 116.001 79.9997 114.668 83.9997" stroke="#FCFCFC" stroke-width="2" stroke-linecap="round" stroke-linejoin="round"/>
</g>
<path d="M38.667 76.3333V75C38.667 74.4696 38.8777 73.9609 39.2528 73.5858C39.6279 73.2107 40.1366 73 40.667 73C41.1974 73 41.7061 73.2107 42.0812 73.5858C42.4563 73.9609 42.667 74.4696 42.667 75V77" stroke="#FCFCFC" stroke-width="2.41667" stroke-linecap="round" stroke-linejoin="round"/>
<path d="M46.6669 76.9999V68.3333C46.6669 67.8028 46.8776 67.2941 47.2527 66.919C47.6278 66.544 48.1365 66.3333 48.6669 66.3333C49.1973 66.3333 49.706 66.544 50.0811 66.919C50.4562 67.2941 50.6669 67.8028 50.6669 68.3333V82.3333C50.6669 84.455 49.8241 86.4898 48.3238 87.9901C46.8235 89.4904 44.7886 90.3333 42.6669 90.3333H40.0002H40.2776C38.9527 90.3335 37.6485 90.0047 36.4821 89.3763C35.3157 88.748 34.3236 87.8397 33.5949 86.7333C33.5075 86.6001 33.4203 86.4668 33.3336 86.3333C32.9176 85.6946 31.4576 83.1493 28.9522 78.6959C28.6968 78.242 28.6286 77.7063 28.7621 77.2028C28.8956 76.6993 29.2202 76.2678 29.6669 75.9999C30.1427 75.7144 30.7003 75.5961 31.2511 75.6637C31.8019 75.7314 32.3143 75.9811 32.7069 76.3733L34.6669 78.3333" stroke="#FCFCFC" stroke-width="2.41667" stroke-linecap="round" stroke-linejoin="round"/>
<path d="M42.667 75C42.667 74.4696 42.8777 73.9609 43.2528 73.5858C43.6279 73.2107 44.1366 73 44.667 73C45.1974 73 45.7061 73.2107 46.0812 73.5858C46.4563 73.9609 46.667 74.4696 46.667 75V77M34.667 78.3333V67C34.667 66.4696 34.8777 65.9609 35.2528 65.5858C35.6279 65.2107 36.1366 65 36.667 65C37.1974 65 37.7061 65.2107 38.0812 65.5858C38.4563 65.9609 38.667 66.4696 38.667 67V77" stroke="#FCFCFC" stroke-width="2.41667" stroke-linecap="round" stroke-linejoin="round"/>
<g clip-path="url(#clip2_5267_15221)">
<path d="M73.5688 61.2531C72.775 60.1656 71.4813 59.5 70.075 59.5H69.2294C69.0095 59.5 68.7894 59.5172 68.5713 59.5511C67.8 58.9581 66.85 58.625 65.8438 58.625H65C64.7514 58.625 64.506 58.6481 64.2656 58.6927C63.5437 57.6694 62.35 57 61 57H60C57.7937 57 56 58.7906 56 61V64.1069L53.94 65.9563C52.7063 67 52 68.5375 52 70.1812V75.1169C52 77.1231 53.0694 78.97 54.7906 79.9369L57 81.1812V87.5C57 88.3312 57.6688 89 58.4438 89C59.2188 89 60 88.3312 60 87.5V79.3813C59.9177 79.3404 59.8266 79.3237 59.7461 79.2788L56.2599 77.3201C55.4825 76.8875 55 76.0375 55 75.1187V70.1812C55 69.4119 55.3301 68.6956 55.9062 68.2194L57 67.2375V70C57 70.55 57.45 71 58 71C58.55 71 59 70.5527 59 70V61C59 60.4483 59.4493 60 60 60H61C61.55 60 62 60.4481 62 61V62C62 62.5986 62.4964 63.0025 63.0094 63.0025C63.4114 63.0025 63.7788 62.7514 63.93 62.3669C63.9563 62.3025 64.2688 61.625 65 61.625H65.8456C67.1562 61.625 66.9656 62.8488 67.9875 62.8488C68.4986 62.8488 68.6062 62.4998 69.23 62.4998H70.0756C71.6719 62.4998 71.2175 64.2641 72.4919 64.2641C72.5016 64.2641 72.5114 64.264 72.5211 64.2636L73.4625 64.25C74.2563 64.25 75 64.9812 75 65.875V74C75 76.2594 73.7787 78.2075 72 79.2306V87.4994C72 88.3312 72.6688 89 73.4438 89C74.2188 89 75 88.3312 75 87.5V80.7437C76.8813 79.05 78 76.6 78 74V65.875C78 63.3812 76.05 61.34 73.5688 61.2531Z" fill="#FCFCFC"/>
</g>
<path d="M28.5688 61.2531C27.775 60.1656 26.4813 59.5 25.075 59.5H24.2294C24.0095 59.5 23.7894 59.5172 23.5713 59.5511C22.8 58.9581 21.85 58.625 20.8438 58.625H20C19.7514 58.625 19.506 58.6481 19.2656 58.6927C18.5437 57.6694 17.35 57 16 57H15C12.7937 57 11 58.7906 11 61V64.1069L8.94 65.9563C7.70625 67 7 68.5375 7 70.1812V75.1169C7 77.1231 8.06938 78.97 9.79063 79.9369L12 81.1812V87.5C12 88.3312 12.6688 89 13.4438 89C14.2188 89 15 88.3312 15 87.5V79.3813C14.9177 79.3404 14.8266 79.3237 14.7461 79.2788L11.2599 77.3201C10.4825 76.8875 10 76.0375 10 75.1187V70.1812C10 69.4119 10.3301 68.6956 10.9062 68.2194L12 67.2375V70C12 70.55 12.45 71 13 71C13.55 71 14 70.5527 14 70V61C14 60.4483 14.4493 60 15 60H16C16.55 60 17 60.4481 17 61V62C17 62.5986 17.4964 63.0025 18.0094 63.0025C18.4114 63.0025 18.7788 62.7514 18.93 62.3669C18.9563 62.3025 19.2688 61.625 20 61.625H20.8456C22.1562 61.625 21.9656 62.8488 22.9875 62.8488C23.4986 62.8488 23.6062 62.4998 24.23 62.4998H25.0756C26.6719 62.4998 26.2175 64.2641 27.4919 64.2641C27.5016 64.2641 27.5114 64.264 27.5211 64.2636L28.4625 64.25C29.2563 64.25 30 64.9812 30 65.875V74C30 76.2594 28.7787 78.2075 27 79.2306V87.4994C27 88.3312 27.6688 89 28.4438 89C29.2188 89 30 88.3312 30 87.5V80.7437C31.8813 79.05 33 76.6 33 74V65.875C33 63.3812 31.05 61.34 28.5688 61.2531Z" fill="#FCFCFC"/>
</g>
<path d="M3 12C3 7.02944 7.02944 3 12 3H111C115.971 3 120 7.02944 120 12C120 8.13401 116.418 5 112 5H12C8.13401 5 5 8.13401 5 12H3ZM120 81C120 85.9706 115.971 90 111 90H12C7.02944 90 3 85.9706 3 81H5C5 84.866 8.13401 88 12 88H112C116.418 88 120 84.866 120 81ZM12 90C7.02944 90 3 85.9706 3 81V12C3 7.02944 7.02944 3 12 3V5C8.13401 5 5 8.13401 5 12V81C5 84.866 8.13401 88 12 88V90ZM120 4V89V4Z" fill="#FCFCFC" mask="url(#path-5-inside-3_5267_15221)"/>
<line x1="130.5" y1="11" x2="130.5" y2="82" stroke="#FCFCFC"/>
<line x1="135.5" y1="11" x2="135.5" y2="82" stroke="#FCFCFC"/>
<path d="M121 12C121 7.02944 125.029 3 130 3H140C144.971 3 149 7.02944 149 12H147C147 8.13401 143.866 5 140 5H129C124.582 5 121 8.13401 121 12ZM149 81C149 85.9706 144.971 90 140 90H130C125.029 90 121 85.9706 121 81C121 84.866 124.582 88 129 88H140C143.866 88 147 84.866 147 81H149ZM121 89V4V89ZM140 3C144.971 3 149 7.02944 149 12V81C149 85.9706 144.971 90 140 90V88C143.866 88 147 84.866 147 81V12C147 8.13401 143.866 5 140 5V3Z" fill="#FCFCFC" mask="url(#path-20-inside-4_5267_15221)"/>
<line x1="120.5" y1="12" x2="120.5" y2="83" stroke="#FCFCFC" stroke-dasharray="2 2"/>
<defs>
<clipPath id="clip0_5267_15221">
<path d="M4 12C4 7.58172 7.58172 4 12 4H112C116.418 4 120 7.58172 120 12V81C120 85.4183 116.418 89 112 89H12C7.58172 89 4 85.4183 4 81V12Z" fill="white"/>
</clipPath>
<clipPath id="clip1_5267_15221">
<rect width="27" height="32" fill="white" transform="translate(95 60)"/>
</clipPath>
<clipPath id="clip2_5267_15221">
<rect width="26" height="32" fill="white" transform="translate(52 57)"/>
</clipPath>
</defs>
</svg>
