<svg fill="#FFFFFF" xmlns="http://www.w3.org/2000/svg"  viewBox="0 0 100 100" width="100px" height="100px"><path d="M 20.857422 18 C 16.524422 18 13 21.538672 13 25.888672 L 13 74.111328 C 13 78.461328 16.524422 82 20.857422 82 L 50.412109 82 L 76.957031 82 L 79.142578 82 C 83.475578 82 87 78.460328 87 74.111328 L 87 25.888672 C 87 21.538672 83.475578 18 79.142578 18 L 20.857422 18 z M 20.857422 20 L 79.142578 20 C 82.372578 20 85 22.641672 85 25.888672 L 85 74.111328 C 85 77.358328 82.372578 80 79.142578 80 L 77.707031 80 L 71.707031 74 L 73.675781 74 L 78.5 74 C 78.776 74 79 73.776 79 73.5 L 79 49.5 C 79 49.224 78.776 49 78.5 49 C 78.224 49 78 49.224 78 49.5 L 78 73 L 73.675781 73 L 71 73 L 71 69.5 C 71 69.224 70.776 69 70.5 69 L 56.5 69 C 56.224 69 56 69.224 56 69.5 L 56 73 L 32.5 73 C 32.224 73 32 73.224 32 73.5 C 32 73.776 32.224 74 32.5 74 L 56.292969 74 L 56.853516 74.560547 C 57.048516 74.755547 57.365547 74.755547 57.560547 74.560547 C 57.712547 74.408547 57.746109 74.185 57.662109 74 L 70.292969 74 L 76.292969 80 L 50.412109 80 L 20.857422 80 C 17.627422 80 15 77.357328 15 74.111328 L 15 25.888672 C 15 22.641672 17.627422 20 20.857422 20 z M 21.5 26 C 21.224 26 21 26.224 21 26.5 L 21 40.5 C 21 40.776 21.224 41 21.5 41 C 21.776 41 22 40.776 22 40.5 L 22 27 L 51.5 27 C 51.776 27 52 26.776 52 26.5 C 52 26.224 51.776 26 51.5 26 L 21.5 26 z M 54.5 26 C 54.224 26 54 26.224 54 26.5 C 54 26.776 54.224 27 54.5 27 L 56.5 27 C 56.776 27 57 26.776 57 26.5 C 57 26.224 56.776 26 56.5 26 L 54.5 26 z M 66.5 26 C 66.224 26 66 26.224 66 26.5 C 66 26.776 66.224 27 66.5 27 L 78 27 L 78 39.5 C 78 39.776 78.224 40 78.5 40 C 78.776 40 79 39.776 79 39.5 L 79 26.5 C 79 26.224 78.776 26 78.5 26 L 66.5 26 z M 50 37 C 46.691 37 44 39.691 44 43 C 44 46.309 46.691 49 50 49 C 53.309 49 56 46.309 56 43 C 56 39.691 53.309 37 50 37 z M 50 38 C 52.757 38 55 40.243 55 43 C 55 45.757 52.757 48 50 48 C 47.243 48 45 45.757 45 43 C 45 40.243 47.243 38 50 38 z M 21.5 44 C 21.224 44 21 44.224 21 44.5 L 21 73.5 C 21 73.776 21.224 74 21.5 74 L 22.5 74 C 22.776 74 23 73.776 23 73.5 C 23 73.224 22.776 73 22.5 73 L 22 73 L 22 44.5 C 22 44.224 21.776 44 21.5 44 z M 36 44 C 33.794 44 32 45.794 32 48 C 32 50.206 33.794 52 36 52 C 38.206 52 40 50.206 40 48 C 40 45.794 38.206 44 36 44 z M 64 44 C 61.794 44 60 45.794 60 48 C 60 50.206 61.794 52 64 52 C 66.206 52 68 50.206 68 48 C 68 45.794 66.206 44 64 44 z M 36 45 C 37.654 45 39 46.346 39 48 C 39 49.654 37.654 51 36 51 C 34.346 51 33 49.654 33 48 C 33 46.346 34.346 45 36 45 z M 64 45 C 65.654 45 67 46.346 67 48 C 67 49.654 65.654 51 64 51 C 62.346 51 61 49.654 61 48 C 61 46.346 62.346 45 64 45 z M 50 50 C 45.242671 50 42.144362 52.103909 40.533203 53.601562 C 39.216078 53.202418 37.743572 53 36.154297 53 C 31.125297 53 28.738312 54.9675 27.945312 55.8125 C 27.336312 56.4615 27 57.319516 27 58.228516 L 27 61 L 39.435547 61 L 61 61 L 73 61 L 73 58.228516 C 73 57.319516 72.664687 56.4615 72.054688 55.8125 C 71.262687 54.9665 68.874703 53 63.845703 53 C 62.255585 53 60.78473 53.205141 59.46875 53.605469 C 57.859227 52.106787 54.76214 50 50 50 z M 50 51 C 54.811 51 57.804156 53.312453 59.160156 54.689453 C 59.702156 55.239453 60 55.966328 60 56.736328 L 60 60 L 40 60 L 40 56.736328 C 40 55.966328 40.298844 55.2375 40.839844 54.6875 C 42.197844 53.3115 45.191 51 50 51 z M 36.154297 54 C 37.454952 54 38.662219 54.15197 39.763672 54.435547 C 39.275764 55.101838 39 55.896342 39 56.736328 L 39 60 L 28 60 L 28 58.228516 C 28 57.574516 28.240781 56.960094 28.675781 56.496094 C 29.224781 55.911094 31.385297 54 36.154297 54 z M 63.845703 54 C 68.614703 54 70.775219 55.911094 71.324219 56.496094 C 71.759219 56.959094 72 57.574516 72 58.228516 L 72 60 L 61 60 L 61 56.736328 C 61 55.896642 60.724807 55.10209 60.236328 54.435547 C 61.336276 54.151563 62.543081 54 63.845703 54 z M 57 70 L 70 70 L 70 73 L 57.5 73 L 57 73 L 57 70 z M 59.328125 75.828125 C 59.200125 75.828125 59.072109 75.877109 58.974609 75.974609 C 58.779609 76.169609 58.779609 76.486641 58.974609 76.681641 L 60.388672 78.095703 C 60.486672 78.192703 60.614187 78.242188 60.742188 78.242188 C 60.870188 78.242188 60.998703 78.192703 61.095703 78.095703 C 61.290703 77.900703 61.290703 77.583672 61.095703 77.388672 L 59.681641 75.974609 C 59.584141 75.877109 59.456125 75.828125 59.328125 75.828125 z"/></svg>