<svg width="275" height="258" viewBox="0 0 275 258" fill="none" xmlns="http://www.w3.org/2000/svg">
<path d="M254.4 59H19.4404V251.96H254.4V59Z" fill="#E0E0E0"/>
<path d="M258.64 81.3501H17.4695C15.9784 81.3501 14.7695 82.5589 14.7695 84.0501V85.1901C14.7695 86.6813 15.9784 87.8901 17.4695 87.8901H258.64C260.131 87.8901 261.34 86.6813 261.34 85.1901V84.0501C261.34 82.5589 260.131 81.3501 258.64 81.3501Z" fill="#E0E0E0"/>
<path d="M148.59 101.89H33.6797V184.29H148.59V101.89Z" fill="#FAFAFA"/>
<path d="M148.59 184.29C148.59 184.29 148.59 183.77 148.59 182.78C148.59 181.79 148.59 180.32 148.59 178.41C148.59 174.57 148.59 168.96 148.53 161.79C148.53 147.44 148.47 126.87 148.42 101.89L148.63 102.11H33.7305L33.9905 101.85C33.9905 131.37 33.9905 159.37 33.9905 184.25L33.7505 184.01L116.61 184.13L140.21 184.19H146.49H148.1H146.51H140.28L116.74 184.25L33.7405 184.37H33.4805V184.13C33.4805 159.25 33.4805 131.25 33.4805 101.73V101.47H33.7505H148.65H148.86V101.68C148.86 126.68 148.78 147.33 148.75 161.68C148.75 168.83 148.75 174.43 148.75 178.25C148.75 180.14 148.75 181.59 148.75 182.58C148.75 183.57 148.59 184.29 148.59 184.29Z" fill="#263238"/>
<path d="M244.66 95.3398H166.3V244.79H244.66V95.3398Z" fill="#455A64"/>
<path d="M235.29 105.38H176.39V167.14H235.29V105.38Z" fill="#FAFAFA"/>
<path d="M235.29 185.37H176.39V234.87H235.29V185.37Z" fill="#FAFAFA"/>
<path d="M174.43 179.72C176.346 179.72 177.9 178.166 177.9 176.25C177.9 174.333 176.346 172.78 174.43 172.78C172.514 172.78 170.96 174.333 170.96 176.25C170.96 178.166 172.514 179.72 174.43 179.72Z" fill="#E0E0E0"/>
<g opacity="0.2">
<path d="M40.0502 59.0801C40.0502 69.8201 30.2902 80.6401 19.4402 80.6401L18.7002 59.0801H40.0502Z" fill="black"/>
<path d="M98.9798 81.5801C109.82 81.5801 118.62 71.5201 118.62 59.1201H79.3398C79.3398 71.5201 88.1298 81.5801 98.9798 81.5801Z" fill="black"/>
<path d="M177.54 81.5801C188.38 81.5801 197.18 71.5201 197.18 59.1201H157.9C157.9 71.5201 166.69 81.5801 177.54 81.5801Z" fill="black"/>
<path d="M59.6898 81.5801C70.5398 81.5801 79.3398 71.5201 79.3398 59.1201H40.0498C40.0498 71.5201 48.8498 81.5801 59.6898 81.5801Z" fill="black"/>
<path d="M138.26 81.5801C149.1 81.5801 157.9 71.5201 157.9 59.1201H118.62C118.62 71.5201 127.41 81.5801 138.26 81.5801Z" fill="black"/>
<path d="M216.891 81.5801C227.781 81.5801 236.611 71.5201 236.611 59.1201H197.181C197.181 71.5201 206.001 81.5801 216.891 81.5801Z" fill="black"/>
<path d="M236.61 59.0801C236.61 71.4801 243.55 81.0801 254.25 81.0801L254.67 59.0801H236.61Z" fill="black"/>
</g>
<path d="M30.55 13.4399L0 58.9999H274.56L244.87 13.4399H30.55Z" fill="#FCFCFC"/>
<path d="M0 59C0 64.2089 2.06921 69.2044 5.75243 72.8876C9.43564 76.5708 14.4312 78.64 19.64 78.64C24.8489 78.64 29.8444 76.5708 33.5276 72.8876C37.2108 69.2044 39.28 64.2089 39.28 59H0Z" fill="#FCFCFC"/>
<path d="M39.2803 59C39.2803 64.2089 41.3495 69.2044 45.0327 72.8876C48.7159 76.5708 53.7114 78.64 58.9203 78.64C64.1291 78.64 69.1246 76.5708 72.8078 72.8876C76.4911 69.2044 78.5603 64.2089 78.5603 59H39.2803Z" fill="#FCFCFC"/>
<path d="M78.5596 59C78.5596 64.2089 80.6288 69.2044 84.312 72.8876C87.9952 76.5708 92.9907 78.64 98.1996 78.64C103.408 78.64 108.404 76.5708 112.087 72.8876C115.77 69.2044 117.84 64.2089 117.84 59H78.5596Z" fill="#FCFCFC"/>
<path d="M117.84 59C117.84 64.2089 119.909 69.2044 123.592 72.8876C127.275 76.5708 132.271 78.64 137.48 78.64C142.689 78.64 147.684 76.5708 151.367 72.8876C155.051 69.2044 157.12 64.2089 157.12 59H117.84Z" fill="#FCFCFC"/>
<path d="M157.12 59C157.12 64.2089 159.189 69.2044 162.873 72.8876C166.556 76.5708 171.551 78.64 176.76 78.64C181.969 78.64 186.964 76.5708 190.648 72.8876C194.331 69.2044 196.4 64.2089 196.4 59H157.12Z" fill="#FCFCFC"/>
<path d="M196.4 59C196.516 64.1519 198.644 69.0536 202.329 72.6562C206.014 76.2588 210.962 78.276 216.115 78.276C221.269 78.276 226.217 76.2588 229.902 72.6562C233.586 69.0536 235.714 64.1519 235.83 59H196.4Z" fill="#FCFCFC"/>
<g opacity="0.3">
<path d="M39.2803 59C39.2803 64.2089 41.3495 69.2044 45.0327 72.8876C48.7159 76.5708 53.7114 78.64 58.9203 78.64C64.1291 78.64 69.1246 76.5708 72.8078 72.8876C76.4911 69.2044 78.5603 64.2089 78.5603 59H39.2803Z" fill="#4E4B66"/>
</g>
<g opacity="0.3">
<path d="M117.84 59C117.84 64.2089 119.909 69.2044 123.592 72.8876C127.275 76.5708 132.271 78.64 137.48 78.64C142.689 78.64 147.684 76.5708 151.367 72.8876C155.051 69.2044 157.12 64.2089 157.12 59H117.84Z" fill="#4E4B66"/>
</g>
<g opacity="0.3">
<path d="M196.4 59C196.516 64.1519 198.644 69.0536 202.329 72.6562C206.014 76.2588 210.962 78.276 216.115 78.276C221.269 78.276 226.217 76.2588 229.902 72.6562C233.586 69.0536 235.714 64.1519 235.83 59H196.4Z" fill="#4E4B66"/>
</g>
<path d="M235.83 59C235.83 64.1372 237.871 69.0641 241.503 72.6967C245.136 76.3292 250.063 78.37 255.2 78.37C260.337 78.37 265.264 76.3292 268.897 72.6967C272.529 69.0641 274.57 64.1372 274.57 59H235.83Z" fill="#FCFCFC"/>
<g opacity="0.3">
<path d="M39.2803 59.1199L60.0103 13.4399H88.0403L78.5603 59.1199H39.2803Z" fill="#4E4B66"/>
</g>
<g opacity="0.3">
<path d="M117.44 13.4399L117.84 59.1199H157.12L152.75 13.4399H117.44Z" fill="#4E4B66"/>
</g>
<g opacity="0.3">
<path d="M196.4 59.1199L185.97 13.4399H215.84L235.68 59.1199H196.4Z" fill="#4E4B66"/>
</g>
<path d="M248.48 0H25.3604C22.0909 0 19.4404 2.65048 19.4404 5.92V7.52C19.4404 10.7895 22.0909 13.44 25.3604 13.44H248.48C251.75 13.44 254.4 10.7895 254.4 7.52V5.92C254.4 2.65048 251.75 0 248.48 0Z" fill="#FCFCFC"/>
<path d="M274.57 59.0801C274.57 59.2201 213.1 59.3401 137.29 59.3401C61.48 59.3401 0 59.2601 0 59.0801C0 58.9001 61.45 58.8201 137.29 58.8201C213.13 58.8201 274.57 58.9701 274.57 59.0801Z" fill="#263238"/>
<path d="M254.67 243.43C254.67 243.43 254.67 243.19 254.67 242.7C254.67 242.21 254.67 241.48 254.67 240.53C254.67 238.61 254.67 235.78 254.67 232.1C254.67 224.71 254.67 213.92 254.6 200.25C254.6 172.89 254.55 134 254.51 87.8901L254.74 88.1201H136.49H19.5705L19.8105 87.8801C19.8105 134.36 19.7405 173.58 19.7105 201.19C19.7105 214.99 19.7105 225.89 19.6505 233.34C19.6505 237.06 19.6505 239.92 19.6505 241.86C19.6505 242.81 19.6505 243.54 19.6505 244.04C19.6505 244.54 19.6505 244.78 19.6505 244.78C19.6505 244.78 19.6505 244.53 19.6505 244.04C19.6505 243.55 19.6505 242.81 19.6505 241.86C19.6505 239.92 19.6505 237.06 19.6505 233.34C19.6505 225.89 19.6505 214.99 19.5805 201.19C19.5805 173.58 19.5805 134.36 19.4905 87.8801V87.6401H19.4805H136.4H254.65H254.89V87.8701C254.89 133.98 254.82 172.87 254.79 200.23C254.79 213.9 254.74 224.69 254.73 232.08C254.73 235.76 254.73 238.59 254.73 240.51C254.73 241.46 254.73 242.18 254.73 242.68C254.73 243.18 254.67 243.43 254.67 243.43Z" fill="#263238"/>
<path d="M255.48 81.3498C255.48 81.4998 202.66 81.6098 137.48 81.6098C72.3005 81.6098 19.4805 81.4998 19.4805 81.3498C19.4805 81.1998 72.3005 81.0898 137.48 81.0898C202.66 81.0898 255.48 81.2098 255.48 81.3498Z" fill="#263238"/>
<path d="M248.93 13.4399C248.93 13.5899 199.15 13.6999 137.76 13.6999C76.3701 13.6999 26.5801 13.5899 26.5801 13.4399C26.5801 13.2899 76.3501 13.1799 137.76 13.1799C199.17 13.1799 248.93 13.2999 248.93 13.4399Z" fill="#263238"/>
<path d="M69.26 183.87C69.12 183.87 69 165.61 69 143.09C69 120.57 69.12 102.32 69.26 102.32C69.4 102.32 69.48 120.57 69.48 143.08C69.48 165.59 69.41 183.87 69.26 183.87Z" fill="#E0E0E0"/>
<path d="M110.48 183.87C110.34 183.87 110.22 165.61 110.22 143.09C110.22 120.57 110.34 102.32 110.48 102.32C110.62 102.32 110.74 120.57 110.74 143.09C110.74 165.61 110.65 183.87 110.48 183.87Z" fill="#E0E0E0"/>
<path d="M148.54 144.31C148.54 144.45 122.75 144.57 90.9303 144.57C59.1103 144.57 33.3203 144.45 33.3203 144.31C33.3203 144.17 59.1103 144.05 90.9303 144.05C122.75 144.05 148.54 144.17 148.54 144.31Z" fill="#E0E0E0"/>
<path d="M243.28 95.3398C243.121 95.593 242.947 95.8368 242.76 96.0699L241.21 98.0699C239.82 99.8599 237.85 102.37 235.43 105.47L235.38 105.54H235.29L205.14 105.61L176.39 105.54H176.3L176.25 105.49L168.93 98.0898L166.93 96.0898L166.42 95.5499C166.31 95.4299 166.26 95.3599 166.27 95.3499L166.46 95.5098L167.01 96.0098L169.01 98.0098L176.45 105.29H176.32L205.07 105.22L235.22 105.29L235.07 105.36L240.98 98.0699L242.61 96.0699C242.81 95.8062 243.034 95.5618 243.28 95.3398Z" fill="#263238"/>
<path d="M244.79 244.52C244.79 244.52 244.72 244.52 244.6 244.37L244.08 243.89L242.08 242.01L234.96 235.01L235.1 235.07L205.4 235.14L176.2 235.07L176.33 235.01L168.89 242.21L166.89 244.15L166.35 244.64C166.22 244.75 166.16 244.8 166.15 244.79C166.196 244.72 166.25 244.657 166.31 244.6L166.81 244.07C167.29 243.57 167.95 242.9 168.81 242.07L176.13 234.75L176.19 234.69H176.27L205.47 234.63L235.17 234.7H235.25L235.3 234.75L242.3 241.87L244.18 243.87L244.66 244.39C244.75 244.45 244.8 244.51 244.79 244.52Z" fill="#263238"/>
<path d="M235.29 107.49C235.29 107.49 235.29 107.58 235.29 107.77C235.29 107.96 235.29 108.26 235.29 108.62C235.29 109.39 235.29 110.49 235.29 111.91C235.29 114.8 235.29 118.99 235.36 124.25C235.36 134.82 235.41 149.73 235.45 167.14V167.38H235.21H204.71H176.31H176.06V167.14C176.06 149.14 176.13 133.74 176.15 122.77C176.15 117.32 176.21 112.98 176.22 109.97C176.22 108.5 176.22 107.36 176.22 106.56C176.22 106.19 176.22 105.9 176.22 105.68C176.207 105.58 176.207 105.479 176.22 105.38C176.22 105.38 176.22 105.48 176.22 105.68C176.22 105.88 176.22 106.19 176.22 106.56C176.22 107.36 176.22 108.5 176.22 109.97C176.22 112.97 176.22 117.32 176.29 122.77C176.29 133.77 176.34 149.17 176.38 167.14L176.14 166.89H235.04L234.79 167.14C234.79 149.73 234.86 134.82 234.88 124.25C234.88 118.99 234.94 114.8 234.95 111.91C234.95 110.49 234.95 109.39 234.95 108.62V107.77C235.041 107.652 235.157 107.557 235.29 107.49Z" fill="#263238"/>
<path d="M235.29 234.88C235.277 234.8 235.277 234.719 235.29 234.64V233.94C235.29 233.3 235.29 232.39 235.29 231.23C235.29 228.83 235.29 225.37 235.22 221.02C235.22 212.24 235.16 199.88 235.12 185.37L235.37 185.61H205.85H176.33L176.57 185.37C176.57 199.88 176.5 212.25 176.48 221.02C176.48 225.37 176.42 228.83 176.41 231.23C176.41 232.39 176.41 233.3 176.41 233.94C176.41 234.23 176.41 234.46 176.41 234.64C176.419 234.72 176.419 234.8 176.41 234.88C176.395 234.801 176.395 234.719 176.41 234.64C176.41 234.46 176.41 234.23 176.41 233.94C176.41 233.3 176.41 232.39 176.41 231.23C176.41 228.83 176.41 225.37 176.34 221.02C176.34 212.25 176.29 199.88 176.25 185.37V185.13H176.49H206.01H235.53H235.77V185.37C235.77 199.88 235.7 212.24 235.67 221.02C235.67 225.37 235.62 228.83 235.6 231.23C235.6 232.39 235.6 233.3 235.6 233.94V234.64C235.3 234.8 235.29 234.88 235.29 234.88Z" fill="#263238"/>
<path d="M214.2 127.4L213.41 126.62L211.28 124.47C209.4 122.56 206.97 120.08 204.28 117.33H204.67C202.2 120.33 199.95 123.07 198.29 125.02C197.47 126.02 196.79 126.77 196.29 127.31C196.064 127.605 195.802 127.871 195.51 128.1C195.687 127.772 195.898 127.464 196.14 127.18C196.64 126.52 197.26 125.72 197.99 124.78C199.57 122.78 201.78 120.02 204.25 117L204.43 116.77L204.64 116.98C207.36 119.78 209.79 122.34 211.53 124.23C213.27 126.12 214.31 127.32 214.2 127.4Z" fill="#263238"/>
<path d="M227.271 126.945L183.629 128.515L184.244 145.604L227.885 144.034L227.271 126.945Z" fill="#455A64"/>
<path d="M195.41 139.28C194.934 139.059 194.526 138.714 194.23 138.28C193.942 137.82 193.78 137.292 193.761 136.75C193.741 136.207 193.865 135.669 194.12 135.19C194.374 134.723 194.755 134.338 195.22 134.08C195.716 133.806 196.269 133.652 196.836 133.631C197.402 133.61 197.965 133.723 198.48 133.96C198.964 134.194 199.374 134.556 199.665 135.008C199.956 135.46 200.117 135.983 200.13 136.52C200.158 137.058 200.036 137.593 199.778 138.066C199.52 138.539 199.137 138.931 198.67 139.2C198.178 139.487 197.62 139.642 197.05 139.65C196.481 139.665 195.917 139.538 195.41 139.28ZM197.94 138.19C198.206 138.025 198.42 137.79 198.56 137.51C198.715 137.201 198.788 136.856 198.77 136.51C198.758 136.175 198.662 135.848 198.49 135.56C198.332 135.287 198.1 135.065 197.82 134.92C197.531 134.769 197.206 134.696 196.88 134.71C196.552 134.726 196.232 134.822 195.95 134.99C195.68 135.15 195.464 135.387 195.33 135.67C195.175 135.98 195.102 136.324 195.12 136.67C195.124 137.022 195.22 137.367 195.4 137.67C195.558 137.943 195.79 138.165 196.07 138.31C196.364 138.452 196.688 138.519 197.014 138.507C197.34 138.495 197.658 138.403 197.94 138.24V138.19Z" fill="#FCFCFC"/>
<path d="M204.92 133.65C205.289 133.791 205.606 134.04 205.829 134.365C206.053 134.69 206.171 135.076 206.17 135.47C206.186 135.865 206.093 136.256 205.9 136.6C205.696 136.931 205.401 137.195 205.05 137.36C204.629 137.551 204.173 137.653 203.71 137.66H202.54L202.6 139.27L201.25 139.32L201.04 133.5L203.56 133.4C204.025 133.394 204.487 133.479 204.92 133.65ZM204.51 136.27C204.615 136.175 204.695 136.057 204.746 135.925C204.796 135.793 204.815 135.651 204.8 135.51C204.804 135.369 204.775 135.229 204.716 135.101C204.657 134.972 204.57 134.859 204.46 134.77C204.184 134.593 203.857 134.512 203.53 134.54H202.43L202.5 136.54H203.6C203.915 136.548 204.224 136.453 204.48 136.27H204.51Z" fill="#FCFCFC"/>
<path d="M211.73 137.9V138.98L207.22 139.14L207.01 133.32L211.41 133.16V134.24L208.35 134.35V135.62L211.06 135.52V136.57L208.36 136.66L208.41 138.01L211.73 137.9Z" fill="#FCFCFC"/>
<path d="M217.97 132.93L218.18 138.75H217.08L214.08 135.32L214.21 138.85L212.88 138.9L212.67 133.08H213.79L216.79 136.51L216.66 132.97L217.97 132.93Z" fill="#FCFCFC"/>
<path d="M260.05 244.09H11.0303V257.42H260.05V244.09Z" fill="#E0E0E0"/>
<path d="M260.05 244.14C260.05 244.28 204.2 244.4 135.32 244.4C66.4401 244.4 10.5801 244.28 10.5801 244.14C10.5801 244 66.4201 243.88 135.32 243.88C204.22 243.88 260.05 243.99 260.05 244.14Z" fill="#263238"/>
<path d="M150.26 194.27H118.19V204.27H150.26V194.27Z" fill="#EBEBEB"/>
<path d="M66.9401 193.2H34.8701V203.2H66.9401V193.2Z" fill="#EBEBEB"/>
<path d="M133.16 204.56H101.09V214.56H133.16V204.56Z" fill="#F5F5F5"/>
<path d="M91.4795 230.08C91.4638 229.843 91.4638 229.606 91.4795 229.37C91.4795 228.87 91.4795 228.22 91.4795 227.37C91.4795 225.62 91.4295 223.15 91.3895 220.06L91.5595 220.23L59.4895 220.32C59.5995 220.21 59.2195 220.58 59.7395 220.06V230.06L59.4795 229.8L82.3495 229.92L89.0795 229.99H90.8995H91.5595C91.3631 230.004 91.166 230.004 90.9695 229.99H89.1995L82.5195 230.06L59.5195 230.18H59.2695V225.04C59.2695 224.2 59.2695 223.36 59.2695 222.51V220.08C59.7895 219.56 59.4195 219.94 59.5395 219.82L91.6095 219.91H91.7795V220.08C91.7795 223.21 91.7095 225.71 91.6895 227.49C91.6895 228.3 91.6895 228.95 91.6895 229.43C91.6344 229.651 91.5643 229.868 91.4795 230.08Z" fill="#263238"/>
</svg>
