<svg width="80" height="80" viewBox="0 0 80 80" fill="none" xmlns="http://www.w3.org/2000/svg">
<rect width="80" height="80" rx="40" fill="#00966D"/>
<path d="M54.6877 25.2292C50.7918 21.3125 45.6043 19.1667 40.0835 19.1667C28.7085 19.1667 19.4377 28.4375 19.4377 39.8125C19.4377 43.4583 20.396 47 22.1877 50.125L19.271 60.8333L30.2085 57.9583C33.2293 59.6042 36.6252 60.4792 40.0835 60.4792C51.4585 60.4792 60.7293 51.2083 60.7293 39.8333C60.7293 34.3125 58.5835 29.125 54.6877 25.2292ZM40.0835 56.9792C37.0002 56.9792 33.9793 56.1458 31.3335 54.5833L30.7085 54.2083L24.2085 55.9167L25.9377 49.5833L25.521 48.9375C23.8127 46.2083 22.896 43.0417 22.896 39.8125C22.896 30.3542 30.6043 22.6458 40.0627 22.6458C44.646 22.6458 48.9585 24.4375 52.1877 27.6875C55.4377 30.9375 57.2085 35.25 57.2085 39.8333C57.2502 49.2917 49.5418 56.9792 40.0835 56.9792ZM49.5002 44.1458C48.9793 43.8958 46.4377 42.6458 45.9793 42.4583C45.5002 42.2917 45.1668 42.2083 44.8127 42.7083C44.4585 43.2292 43.4793 44.3958 43.1877 44.7292C42.896 45.0833 42.5835 45.125 42.0627 44.8542C41.5418 44.6042 39.8752 44.0417 37.9168 42.2917C36.3752 40.9167 35.3543 39.2292 35.0418 38.7083C34.7502 38.1875 35.0002 37.9167 35.271 37.6458C35.5002 37.4167 35.7918 37.0417 36.0418 36.75C36.2918 36.4583 36.396 36.2292 36.5627 35.8958C36.7293 35.5417 36.646 35.25 36.521 35C36.396 34.75 35.3543 32.2083 34.9377 31.1667C34.521 30.1667 34.0835 30.2917 33.771 30.2708C33.4585 30.2708 33.1252 30.2708 32.771 30.2708C32.4168 30.2708 31.8752 30.3958 31.396 30.9167C30.9377 31.4375 29.6043 32.6875 29.6043 35.2292C29.6043 37.7708 31.4585 40.2292 31.7085 40.5625C31.9585 40.9167 35.3543 46.125 40.521 48.3542C41.7502 48.8958 42.7085 49.2083 43.4585 49.4375C44.6877 49.8333 45.8127 49.7708 46.7085 49.6458C47.7085 49.5 49.771 48.3958 50.1877 47.1875C50.6252 45.9792 50.6252 44.9583 50.4793 44.7292C50.3335 44.5 50.021 44.3958 49.5002 44.1458Z" fill="#FCFCFC"/>
</svg>
